C:\Users\u0088756\Documents\documenten\software\SoftwareProjects\DC_TrackingSimulation\Data\Patient2\InputData\GRF_data.mot
nRows=22
nColumns=19

name C:\Users\u0088756\Documents\documenten\software\SoftwareProjects\DC_TrackingSimulation\Data\Patient2\InputData\GRF_data.mot
datacolumns 19
datarows 22
range 0.3200000000 0.3410000000
endheader
time	ground_force_vx	ground_force_vy	ground_force_vz	ground_force_px	ground_force_py	ground_force_pz	1_ground_force_vx	1_ground_force_vy	1_ground_force_vz	1_ground_force_px	1_ground_force_py	1_ground_force_pz	ground_torque_x	ground_torque_y	ground_torque_z	1_ground_torque_x	1_ground_torque_y	1_ground_torque_z
        0.3200000000	      -48.4627254535	      900.8486371766	       36.7657118789	        0.6845245101	        0.0005700019	       -0.0847354560	        0.0000000000	        0.0000000000	        0.0000000000	        0.3113601050	        0.0005700019	       -0.0000626656	        0.0000000000	        7.1156906260	        0.0000000000	        0.0000000000	        0.0000000000	        0.0000000000	
        0.3210000000	      -47.7700520085	      898.7122096623	       36.6817881696	        0.6846937057	        0.0005692019	       -0.0848032259	        0.0000000000	        0.0000000000	        0.0000000000	        0.3123271619	        0.0005692019	       -0.0000595816	        0.0000000000	        7.0979143931	        0.0000000000	        0.0000000000	        0.0000000000	        0.0000000000	
        0.3220000000	      -47.0810466892	      896.5833208018	       36.5938597534	        0.6848627614	        0.0005684019	       -0.0848711194	        0.0000000000	        0.0000000000	        0.0000000000	        0.3132942187	        0.0005684019	       -0.0000564975	        0.0000000000	        7.0796646189	        0.0000000000	        0.0000000000	        0.0000000000	        0.0000000000	
        0.3230000000	      -46.3956529048	      894.4626884308	       36.5020378216	        0.6850313815	        0.0005676020	       -0.0849391539	        0.0000000000	        0.0000000000	        0.0000000000	        0.3142612755	        0.0005676020	       -0.0000534134	        0.0000000000	        7.0609460150	        0.0000000000	        0.0000000000	        0.0000000000	        0.0000000000	
        0.3240000000	      -45.7138144004	      892.3510135073	       36.4064370688	        0.6851992754	        0.0005668020	       -0.0850073467	        0.0000000000	        0.0000000000	        0.0000000000	        0.3152283324	        0.0005668020	       -0.0000503293	        0.0000000000	        7.0417641602	        0.0000000000	        0.0000000000	        0.0000000000	        0.0000000000	
        0.3250000000	      -45.0354754035	      890.2489799834	       36.3071755684	        0.6853649397	        0.0005655532	       -0.0850749486	        0.0000000000	        0.0000000000	        0.0000000000	        0.3161941711	        0.0005655532	       -0.0000464791	        0.0000000000	        7.0221255182	        0.0000000000	        0.0000000000	        0.0000000000	        0.0000000000	
        0.3260000000	      -44.3605807613	      888.1572546972	       36.2043746416	        0.6855293136	        0.0005643043	       -0.0851427423	        0.0000000000	        0.0000000000	        0.0000000000	        0.3171600098	        0.0005643043	       -0.0000426289	        0.0000000000	        7.0020374509	        0.0000000000	        0.0000000000	        0.0000000000	        0.0000000000	
        0.3270000000	      -43.6890760721	      886.0764872858	       36.0981587209	        0.6856921246	        0.0005630554	       -0.0852107441	        0.0000000000	        0.0000000000	        0.0000000000	        0.3181258484	        0.0005630554	       -0.0000387787	        0.0000000000	        6.9815082286	        0.0000000000	        0.0000000000	        0.0000000000	        0.0000000000	
        0.3280000000	      -43.0209078068	      884.0073101190	       35.9886552072	        0.6858531074	        0.0005618066	       -0.0852789697	        0.0000000000	        0.0000000000	        0.0000000000	        0.3190916871	        0.0005618066	       -0.0000349286	        0.0000000000	        6.9605470362	        0.0000000000	        0.0000000000	        0.0000000000	        0.0000000000	
        0.3290000000	      -42.3560234242	      881.9503382527	       35.8759943223	        0.6860120041	        0.0005605577	       -0.0853474345	        0.0000000000	        0.0000000000	        0.0000000000	        0.3200575258	        0.0005605577	       -0.0000310784	        0.0000000000	        6.9391639758	        0.0000000000	        0.0000000000	        0.0000000000	        0.0000000000	
        0.3300000000	      -41.6943714764	      879.9061694032	       35.7603089546	        0.6861676398	        0.0005588225	       -0.0854156685	        0.0000000000	        0.0000000000	        0.0000000000	        0.3210224396	        0.0005588225	       -0.0000267434	        0.0000000000	        6.9173700661	        0.0000000000	        0.0000000000	        0.0000000000	        0.0000000000	
        0.3310000000	      -41.0359017077	      877.8753839410	       35.6417345010	        0.6863206980	        0.0005570874	       -0.0854841711	        0.0000000000	        0.0000000000	        0.0000000000	        0.3219873535	        0.0005570874	       -0.0000224084	        0.0000000000	        6.8951772385	        0.0000000000	        0.0000000000	        0.0000000000	        0.0000000000	
        0.3320000000	      -40.3805651440	      875.8585449027	       35.5204087024	        0.6864709460	        0.0005553522	       -0.0855529559	        0.0000000000	        0.0000000000	        0.0000000000	        0.3229522673	        0.0005553522	       -0.0000180734	        0.0000000000	        6.8725983297	        0.0000000000	        0.0000000000	        0.0000000000	        0.0000000000	
        0.3330000000	      -39.7283141745	      873.8561980232	       35.3964714747	        0.6866181604	        0.0005536170	       -0.0856220363	        0.0000000000	        0.0000000000	        0.0000000000	        0.3239171812	        0.0005536170	       -0.0000137384	        0.0000000000	        6.8496470705	        0.0000000000	        0.0000000000	        0.0000000000	        0.0000000000	
        0.3340000000	      -39.0791026244	      871.8688717842	       35.2700647347	        0.6867621269	        0.0005518818	       -0.0856914249	        0.0000000000	        0.0000000000	        0.0000000000	        0.3248820950	        0.0005518818	       -0.0000094034	        0.0000000000	        6.8263380723	        0.0000000000	        0.0000000000	        0.0000000000	        0.0000000000	
        0.3350000000	      -38.4328858205	      869.8970774812	       35.1413322211	        0.6869021520	        0.0005495963	       -0.0857610305	        0.0000000000	        0.0000000000	        0.0000000000	        0.3258465192	        0.0005495963	       -0.0000049651	        0.0000000000	        6.8026868088	        0.0000000000	        0.0000000000	        0.0000000000	        0.0000000000	
        0.3360000000	      -37.7896206465	      867.9413093061	       35.0104193107	        0.6870385312	        0.0005473107	       -0.0858309677	        0.0000000000	        0.0000000000	        0.0000000000	        0.3268109435	        0.0005473107	       -0.0000005267	        0.0000000000	        6.7787095951	        0.0000000000	        0.0000000000	        0.0000000000	        0.0000000000	
        0.3370000000	      -37.1492655911	      866.0020444464	       34.8774728308	        0.6871710810	        0.0005450251	       -0.0859012473	        0.0000000000	        0.0000000000	        0.0000000000	        0.3277753677	        0.0005450251	        0.0000039116	        0.0000000000	        6.7544235633	        0.0000000000	        0.0000000000	        0.0000000000	        0.0000000000	
        0.3380000000	      -36.5117807870	      864.0797431994	       34.7426408668	        0.6872996286	        0.0005427395	       -0.0859718793	        0.0000000000	        0.0000000000	        0.0000000000	        0.3287397921	        0.0005427395	        0.0000083499	        0.0000000000	        6.7298466343	        0.0000000000	        0.0000000000	        0.0000000000	        0.0000000000	
        0.3390000000	      -35.8771280412	      862.1748491006	       34.6060725670	        0.6874240118	        0.0005404539	       -0.0860428728	        0.0000000000	        0.0000000000	        0.0000000000	        0.3297042163	        0.0005404539	        0.0000127883	        0.0000000000	        6.7049974867	        0.0000000000	        0.0000000000	        0.0000000000	        0.0000000000	
        0.3400000000	      -35.2452708566	      860.2877890668	       34.4679179435	        0.6875439637	        0.0005376044	       -0.0861144479	        0.0000000000	        0.0000000000	        0.0000000000	        0.3306685244	        0.0005376044	        0.0000170152	        0.0000000000	        6.6798955219	        0.0000000000	        0.0000000000	        0.0000000000	        0.0000000000	
        0.3410000000	      -34.6161744448	      858.4189735511	       34.3283276705	        0.6876594608	        0.0005347549	       -0.0861864009	        0.0000000000	        0.0000000000	        0.0000000000	        0.3316328325	        0.0005347549	        0.0000212422	        0.0000000000	        6.6545608267	        0.0000000000	        0.0000000000	        0.0000000000	        0.0000000000	
